<svg xmlns="http://www.w3.org/2000/svg" style="display: none;">
    <!-- box -->
    <symbol id="box" viewBox="0 0 24 24" fill="currentColor">
        <path d="M9 14H15M4.6 10H19.4C19.9601 10 20.2401 10 20.454 9.89101C20.6422 9.79513 20.7951 9.64215 
        20.891 9.45399C21 9.24008 21 8.96005 21 8.4V5.6C21 5.03995 21 4.75992 20.891 4.54601C20.7951 4.35785 20.6422 
        4.20487 20.454 4.10899C20.2401 4 19.9601 4 19.4 4H4.6C4.03995 4 3.75992 4 3.54601 4.10899C3.35785 4.20487 3.20487 
        4.35785 3.10899 4.54601C3 4.75992 3 5.03995 3 5.6V8.4C3 8.96005 3 9.24008 3.10899 9.45399C3.20487 9.64215 3.35785 
        9.79513 3.54601 9.89101C3.75992 10 4.03995 10 4.6 10ZM5 10H19V16.8C19 17.9201 19 18.4802 18.782 18.908C18.5903 19.2843 
        18.2843 19.5903 17.908 19.782C17.4802 20 16.9201 20 15.8 20H8.2C7.07989 20 6.51984 20 6.09202 19.782C5.71569 19.5903 
        5.40973 19.2843 5.21799 18.908C5 18.4802 5 17.9201 5 16.8V10Z" stroke="#000000" stroke-width="2" stroke-linecap="round" stroke-linejoin="round"/>   
    </symbol>
    <!-- chat -->
    <symbol id="chat" viewBox="0 0 24 24" fill="none">
        <path d="M8 10.5H16" stroke="currentColor" stroke-width="1.5" stroke-linecap="round"/>
        <path d="M8 14H13.5" stroke="currentColor" stroke-width="1.5" stroke-linecap="round"/>
        <path d="M17 3.33782C15.5291 2.48697 13.8214 2 12 2C6.47715 2 2 6.47715 2 12C2 13.5997 2.37562 15.1116 3.04346 16.4525C3.22094 16.8088 3.28001 
        17.2161 3.17712 17.6006L2.58151 19.8267C2.32295 20.793 3.20701 21.677 4.17335 21.4185L6.39939 20.8229C6.78393 20.72 7.19121 20.7791 7.54753 
        20.9565C8.88837 21.6244 10.4003 22 12 22C17.5228 22 22 17.5228 22 12C22 10.1786 21.513 8.47087 20.6622 7" stroke="currentColor" stroke-width="1.5" 
        stroke-linecap="round"/>
    </symbol>
    <!-- menu -->
    <symbol id="menu" viewBox="0 0 24 24" fill="currentColor">
        <path d="M4 6H20M4 12H20M4 18H20" stroke="currentColor" stroke-width="2" stroke-linecap="round" stroke-linejoin="round"/>
    </symbol>
    <!-- settings -->
    <symbol id="settings" viewBox="0 0 24 24" fill="currentColor" xmlns="http://www.w3.org/2000/svg">
        <path xmlns="http://www.w3.org/2000/svg" fill-rule="evenodd" clip-rule="evenodd" d="M12 8.25C9.92894 8.25 8.25 9.92893 8.25 12C8.25 
        14.0711 9.92894 15.75 12 15.75C14.0711 15.75 15.75 14.0711 15.75 12C15.75 9.92893 14.0711 8.25 12 8.25ZM9.75 12C9.75 10.7574 10.7574 
        9.75 12 9.75C13.2426 9.75 14.25 10.7574 14.25 12C14.25 13.2426 13.2426 14.25 12 14.25C10.7574 14.25 9.75 13.2426 9.75 12Z" fill="currentColor"/>
        <path xmlns="http://www.w3.org/2000/svg" fill-rule="evenodd" clip-rule="evenodd" d="M11.9747 1.25C11.5303 1.24999 11.1592 1.24999 10.8546 
        1.27077C10.5375 1.29241 10.238 1.33905 9.94761 1.45933C9.27379 1.73844 8.73843 2.27379 8.45932 2.94762C8.31402 3.29842 8.27467 3.66812 8.25964 
        4.06996C8.24756 4.39299 8.08454 4.66251 7.84395 4.80141C7.60337 4.94031 7.28845 4.94673 7.00266 4.79568C6.64714 4.60777 6.30729 4.45699 5.93083 
        4.40743C5.20773 4.31223 4.47642 4.50819 3.89779 4.95219C3.64843 5.14353 3.45827 5.3796 3.28099 5.6434C3.11068 5.89681 2.92517 6.21815 2.70294 6.60307L2.67769 
        6.64681C2.45545 7.03172 2.26993 7.35304 2.13562 7.62723C1.99581 7.91267 1.88644 8.19539 1.84541 8.50701C1.75021 9.23012 1.94617 9.96142 2.39016 10.5401C2.62128 
        10.8412 2.92173 11.0602 3.26217 11.2741C3.53595 11.4461 3.68788 11.7221 3.68786 12C3.68785 12.2778 3.53592 12.5538 3.26217 12.7258C2.92169 12.9397 2.62121 
        13.1587 2.39007 13.4599C1.94607 14.0385 1.75012 14.7698 1.84531 15.4929C1.88634 15.8045 1.99571 16.0873 2.13552 16.3727C2.26983 16.6469 2.45535 16.9682 
        2.67758 17.3531L2.70284 17.3969C2.92507 17.7818 3.11058 18.1031 3.28089 18.3565C3.45817 18.6203 3.64833 18.8564 3.89769 19.0477C4.47632 19.4917 5.20763 
        19.6877 5.93073 19.5925C6.30717 19.5429 6.647 19.3922 7.0025 19.2043C7.28833 19.0532 7.60329 19.0596 7.8439 19.1986C8.08452 19.3375 8.24756 19.607 8.25964 
        19.9301C8.27467 20.3319 8.31403 20.7016 8.45932 21.0524C8.73843 21.7262 9.27379 22.2616 9.94761 22.5407C10.238 22.661 10.5375 22.7076 10.8546 22.7292C11.1592 
        22.75 11.5303 22.75 11.9747 22.75H12.0252C12.4697 22.75 12.8407 22.75 13.1454 22.7292C13.4625 22.7076 13.762 22.661 14.0524 22.5407C14.7262 22.2616 15.2616 
        21.7262 15.5407 21.0524C15.686 20.7016 15.7253 20.3319 15.7403 19.93C15.7524 19.607 15.9154 19.3375 16.156 19.1985C16.3966 19.0596 16.7116 19.0532 16.9974 
        19.2042C17.3529 19.3921 17.6927 19.5429 18.0692 19.5924C18.7923 19.6876 19.5236 19.4917 20.1022 19.0477C20.3516 18.8563 20.5417 18.6203 20.719 18.3565C20.8893 
        18.1031 21.0748 17.7818 21.297 17.3969L21.3223 17.3531C21.5445 16.9682 21.7301 16.6468 21.8644 16.3726C22.0042 16.0872 22.1135 15.8045 22.1546 15.4929C22.2498 
        14.7697 22.0538 14.0384 21.6098 13.4598C21.3787 13.1586 21.0782 12.9397 20.7378 12.7258C20.464 12.5538 20.3121 12.2778 20.3121 11.9999C20.3121 11.7221 20.464 
        11.4462 20.7377 11.2742C21.0783 11.0603 21.3788 10.8414 21.6099 10.5401C22.0539 9.96149 22.2499 9.23019 22.1547 8.50708C22.1136 8.19546 22.0043 7.91274 21.8645 
        7.6273C21.7302 7.35313 21.5447 7.03183 21.3224 6.64695L21.2972 6.60318C21.0749 6.21825 20.8894 5.89688 20.7191 5.64347C20.5418 5.37967 20.3517 5.1436 20.1023 
        4.95225C19.5237 4.50826 18.7924 4.3123 18.0692 4.4075C17.6928 4.45706 17.353 4.60782 16.9975 4.79572C16.7117 4.94679 16.3967 4.94036 16.1561 4.80144C15.9155 
        4.66253 15.7524 4.39297 15.7403 4.06991C15.7253 3.66808 15.686 3.2984 15.5407 2.94762C15.2616 2.27379 14.7262 1.73844 14.0524 1.45933C13.762 1.33905 13.4625 
        1.29241 13.1454 1.27077C12.8407 1.24999 12.4697 1.24999 12.0252 1.25H11.9747ZM10.5216 2.84515C10.5988 2.81319 10.716 2.78372 10.9567 2.76729C11.2042 2.75041 
        11.5238 2.75 12 2.75C12.4762 2.75 12.7958 2.75041 13.0432 2.76729C13.284 2.78372 13.4012 2.81319 13.4783 2.84515C13.7846 2.97202 14.028 3.21536 14.1548 
        3.52165C14.1949 3.61826 14.228 3.76887 14.2414 4.12597C14.271 4.91835 14.68 5.68129 15.4061 6.10048C16.1321 6.51968 16.9974 6.4924 17.6984 6.12188C18.0143 5.9549 
        18.1614 5.90832 18.265 5.89467C18.5937 5.8514 18.9261 5.94047 19.1891 6.14228C19.2554 6.19312 19.3395 6.27989 19.4741 6.48016C19.6125 6.68603 19.7726 6.9626 
        20.0107 7.375C20.2488 7.78741 20.4083 8.06438 20.5174 8.28713C20.6235 8.50382 20.6566 8.62007 20.6675 8.70287C20.7108 9.03155 20.6217 9.36397 20.4199 9.62698C20.3562 
        9.70995 20.2424 9.81399 19.9397 10.0041C19.2684 10.426 18.8122 11.1616 18.8121 11.9999C18.8121 12.8383 19.2683 13.574 19.9397 13.9959C20.2423 14.186 20.3561 14.29 
        20.4198 14.373C20.6216 14.636 20.7107 14.9684 20.6674 15.2971C20.6565 15.3799 20.6234 15.4961 20.5173 15.7128C20.4082 15.9355 20.2487 16.2125 20.0106 16.6249C19.7725 
        17.0373 19.6124 17.3139 19.474 17.5198C19.3394 17.72 19.2553 17.8068 19.189 17.8576C18.926 18.0595 18.5936 18.1485 18.2649 18.1053C18.1613 18.0916 18.0142 18.045 
        17.6983 17.8781C16.9973 17.5075 16.132 17.4803 15.4059 17.8995C14.68 18.3187 14.271 19.0816 14.2414 19.874C14.228 20.2311 14.1949 20.3817 14.1548 20.4784C14.028 
        20.7846 13.7846 21.028 13.4783 21.1549C13.4012 21.1868 13.284 21.2163 13.0432 21.2327C12.7958 21.2496 12.4762 21.25 12 21.25C11.5238 21.25 11.2042 21.2496 10.9567 
        21.2327C10.716 21.2163 10.5988 21.1868 10.5216 21.1549C10.2154 21.028 9.97201 20.7846 9.84514 20.4784C9.80512 20.3817 9.77195 20.2311 9.75859 19.874C9.72896 19.0817 
        9.31997 18.3187 8.5939 17.8995C7.86784 17.4803 7.00262 17.5076 6.30158 17.8781C5.98565 18.0451 5.83863 18.0917 5.73495 18.1053C5.40626 18.1486 5.07385 18.0595 4.81084 
        17.8577C4.74458 17.8069 4.66045 17.7201 4.52586 17.5198C4.38751 17.314 4.22736 17.0374 3.98926 16.625C3.75115 16.2126 3.59171 15.9356 3.4826 15.7129C3.37646 15.4962 
        3.34338 15.3799 3.33248 15.2971C3.28921 14.9684 3.37828 14.636 3.5801 14.373C3.64376 14.2901 3.75761 14.186 4.0602 13.9959C4.73158 13.5741 5.18782 12.8384 5.18786 
        12.0001C5.18791 11.1616 4.73165 10.4259 4.06021 10.004C3.75769 9.81389 3.64385 9.70987 3.58019 9.62691C3.37838 9.3639 3.28931 9.03149 3.33258 8.7028C3.34348 8.62001 
        3.37656 8.50375 3.4827 8.28707C3.59181 8.06431 3.75125 7.78734 3.98935 7.37493C4.22746 6.96253 4.3876 6.68596 4.52596 6.48009C4.66055 6.27983 4.74468 6.19305 4.81093 
        6.14222C5.07395 5.9404 5.40636 5.85133 5.73504 5.8946C5.83873 5.90825 5.98576 5.95483 6.30173 6.12184C7.00273 6.49235 7.86791 6.51962 8.59394 6.10045C9.31998 5.68128 
        9.72896 4.91837 9.75859 4.12602C9.77195 3.76889 9.80512 3.61827 9.84514 3.52165C9.97201 3.21536 10.2154 2.97202 10.5216 2.84515Z" fill="currentColor"/>
    </symbol>
    <!-- star -->
    <symbol id="star" viewBox="0 0 24 24" fill="none">
        <path d="M11.2691 4.41115C11.5006 3.89177 11.6164 3.63208 11.7776 3.55211C11.9176 3.48263 12.082 3.48263 12.222 3.55211C12.3832 3.63208 12.499 3.89177 
        12.7305 4.41115L14.5745 8.54808C14.643 8.70162 14.6772 8.77839 14.7302 8.83718C14.777 8.8892 14.8343 8.93081 14.8982 8.95929C14.9705 8.99149 15.0541 
        9.00031 15.2213 9.01795L19.7256 9.49336C20.2911 9.55304 20.5738 9.58288 20.6997 9.71147C20.809 9.82316 20.8598 9.97956 20.837 10.1342C20.8108 10.3122 
        20.5996 10.5025 20.1772 10.8832L16.8125 13.9154C16.6877 14.0279 16.6252 14.0842 16.5857 14.1527C16.5507 14.2134 16.5288 14.2807 16.5215 14.3503C16.5132 
        14.429 16.5306 14.5112 16.5655 14.6757L17.5053 19.1064C17.6233 19.6627 17.6823 19.9408 17.5989 20.1002C17.5264 20.2388 17.3934 20.3354 17.2393 20.3615C17.0619 
        20.3915 16.8156 20.2495 16.323 19.9654L12.3995 17.7024C12.2539 17.6184 12.1811 17.5765 12.1037 17.56C12.0352 17.5455 11.9644 17.5455 11.8959 17.56C11.8185 17.5765 
        11.7457 17.6184 11.6001 17.7024L7.67662 19.9654C7.18404 20.2495 6.93775 20.3915 6.76034 20.3615C6.60623 20.3354 6.47319 20.2388 6.40075 20.1002C6.31736 19.9408 
        6.37635 19.6627 6.49434 19.1064L7.4341 14.6757C7.46898 14.5112 7.48642 14.429 7.47814 14.3503C7.47081 14.2807 7.44894 14.2134 7.41394 14.1527C7.37439 14.0842 7.31195 
        14.0279 7.18708 13.9154L3.82246 10.8832C3.40005 10.5025 3.18884 10.3122 3.16258 10.1342C3.13978 9.97956 3.19059 9.82316 3.29993 9.71147C3.42581 9.58288 3.70856 9.55304 
        4.27406 9.49336L8.77835 9.01795C8.94553 9.00031 9.02911 8.99149 9.10139 8.95929C9.16534 8.93081 9.2226 8.8892 9.26946 8.83718C9.32241 8.77839 9.35663 8.70162 9.42508 
        8.54808L11.2691 4.41115Z" stroke="currentColor" stroke-width="2" stroke-linecap="round" stroke-linejoin="round"/>
    </symbol>
    <!-- telephone -->
    <symbol id="telephone" viewBox="0 0 24 24" fill="none">
        <path d="M14.3308 15.9402L15.6608 14.6101C15.8655 14.403 16.1092 14.2384 16.3778 14.1262C16.6465 14.014 16.9347 13.9563 17.2258 13.9563C17.517 13.9563 
        17.8052 14.014 18.0739 14.1262C18.3425 14.2384 18.5862 14.403 18.7908 14.6101L20.3508 16.1702C20.5579 16.3748 20.7224 16.6183 20.8346 16.887C20.9468 17.1556 
        21.0046 17.444 21.0046 17.7351C21.0046 18.0263 20.9468 18.3146 20.8346 18.5833C20.7224 18.8519 20.5579 19.0954 20.3508 19.3L19.6408 20.02C19.1516 20.514 18.5189 
        20.841 17.8329 20.9541C17.1469 21.0672 16.4427 20.9609 15.8208 20.6501C10.4691 17.8952 6.11008 13.5396 3.35083 8.19019C3.03976 7.56761 2.93414 6.86242 3.04914 
        6.17603C3.16414 5.48963 3.49384 4.85731 3.99085 4.37012L4.70081 3.65015C5.11674 3.23673 5.67937 3.00464 6.26581 3.00464C6.85225 3.00464 7.41488 3.23673 7.83081 
        3.65015L9.40082 5.22021C9.81424 5.63615 10.0463 6.19871 10.0463 6.78516C10.0463 7.3716 9.81424 7.93416 9.40082 8.3501L8.0708 9.68018C8.95021 10.8697 9.91617 11.9926 
        10.9608 13.04C11.9994 14.0804 13.116 15.04 14.3008 15.9102L14.3308 15.9402Z" stroke="currentColor" stroke-width="1.5" stroke-linecap="round" stroke-linejoin="round"/>
    </symbol>
    <!-- cara feliz -->
    <symbol id="smile" viewBox="0 0 24 24" fill="none">
        <path d="M7.39992 14.2001C7.84036 13.8697 8.4646 13.9577 8.79678 14.3959L8.80142 14.4018C8.80737 14.4093 8.81869 14.4234 8.83523 14.4431C8.86838 14.4826 8.92211 14.5442 8.99535 14.6207C9.14264 14.7744 9.36399 14.9829 9.65059 15.1913C10.2277 15.611 11.0254 16.0001 11.9999 16.0001C12.9744 16.0001 13.7722 15.611 14.3492 15.1913C14.6359 14.9829 14.8572 14.7744 15.0045 14.6207C15.0777 14.5442 15.1315 14.4826 15.1646 14.4431C15.1812 14.4234 15.1925 14.4093 15.1984 14.4018L15.2031 14.3959C15.5352 13.9577 16.1595 13.8697 16.5999 14.2001C17.0417 14.5314 17.1313 15.1582 16.7999 15.6001L16.7989 15.6014C16.6918 15.7435 16.5714 15.8762 16.4485 16.0045C16.2364 16.2258 15.9265 16.5172 15.5256 16.8088C14.7277 17.3891 13.5254 18.0001 11.9999 18.0001C10.4744 18.0001 9.27219 17.3891 8.47425 16.8088C8.07335 16.5172 7.76344 16.2258 7.55137 16.0045C7.42882 15.8766 7.30914 15.7443 7.20208 15.6029C6.87354 15.1664 6.96219 14.5284 7.39992 14.2001Z" fill="currentColor"/>
        <path d="M10.5 9C10.5 9.82843 9.82843 10.5 9 10.5C8.17157 10.5 7.5 9.82843 7.5 9C7.5 8.17157 8.17157 7.5 9 7.5C9.82843 7.5 10.5 8.17157 10.5 9Z" fill="currentColor"/>
        <path d="M15 10.5C15.8284 10.5 16.5 9.82843 16.5 9C16.5 8.17157 15.8284 7.5 15 7.5C14.1716 7.5 13.5 8.17157 13.5 9C13.5 9.82843 14.1716 10.5 15 10.5Z" fill="currentColor"/> 
        <path fill-rule="evenodd" clip-rule="evenodd" d="M12 1C5.92487 1 1 5.92487 1 12C1 18.0751 5.92487 23 12 23C18.0751 23 23 18.0751 23 12C23 5.92487 18.0751 1 12 1ZM3 12C3 7.02944 7.02944 3 12 3C16.9706 3 21 7.02944 21 12C21 16.9706 16.9706 21 12 21C7.02944 21 3 16.9706 3 12Z" fill="currentColor"/>
    </symbol>
    <!-- ajunto imagenes -->
    <symbol id="attach" viewBox="0 0 32 32" fill="currentColor">
        <g id="SVGRepo_bgCarrier" stroke-width="0"/>
        <g id="SVGRepo_tracerCarrier" stroke-linecap="round" stroke-linejoin="round"/>
        <g id="SVGRepo_iconCarrier">
        <title/>
        <path d="M10.93,29.41A8.93,8.93,0,0,1,4.61,14.17L15.92,2.86a.93.93,0,0,1,1.32,1.32L5.93,15.49a7.06,7.06,0,0,0,10,10L27.24,14.17A3.08,3.08,0,0,0,28.13,12a3,3,0,0,0-.89-2.16,3.14,3.14,0,0,0-4.34,0L10.17,22.56a.92.92,0,0,1-1.32,0,.94.94,0,0,1,0-1.32L21.58,8.52a4.93,4.93,0,0,1,7,7L17.24,26.8A8.89,8.89,0,0,1,10.93,29.41Z"/>
        </g>
    </symbol>
    <!-- microphone -->
    <symbol id="microphone" viewBox="-5 0 32 32" version="1.1" xmlns="http://www.w3.org/2000/svg" xmlns:xlink="http://www.w3.org/1999/xlink" xmlns:sketch="http://www.bohemiancoding.com/sketch/ns">
    
        <title>microphone</title>
        <desc>Created with Sketch Beta.</desc>
        <defs>

        </defs>
            <g id="Page-1" stroke="none" stroke-width="1" fill="none" fill-rule="evenodd" sketch:type="MSPage">
                <g id="Icon-Set" sketch:type="MSLayerGroup" transform="translate(-105.000000, -307.000000)" fill="currentColor">
                    <path d="M111,314 C111,311.238 113.239,309 116,309 C118.761,309 121,311.238 121,314 L121,324 C121,326.762 118.761,329 116,329 C113.239,329 111,326.762 111,324 L111,314 L111,314 Z M116,331 C119.866,331 123,327.866 123,324 L123,314 C123,310.134 119.866,307 116,307 C112.134,307 109,310.134 109,314 L109,324 C109,327.866 112.134,331 116,331 L116,331 Z M127,326 L125,326 C124.089,330.007 120.282,333 116,333 C111.718,333 107.911,330.007 107,326 L105,326 C105.883,330.799 110.063,334.51 115,334.955 L115,337 L114,337 C113.448,337 113,337.448 113,338 C113,338.553 113.448,339 114,339 L118,339 C118.552,339 119,338.553 119,338 C119,337.448 118.552,337 118,337 L117,337 L117,334.955 C121.937,334.51 126.117,330.799 127,326 L127,326 Z" id="microphone" sketch:type="MSShapeGroup">

        </path>
                </g>
            </g>
    </symbol>
    <!-- filtrar -->
    <symbol id="filtrar" fill="currentColor" viewBox="0 0 32 32" xmlns="http://www.w3.org/2000/svg">
        <path d="M30 7.249h-28c-0.414 0-0.75 0.336-0.75 0.75s0.336 0.75 0.75 0.75v0h28c0.414 0 0.75-0.336 0.75-0.75s-0.336-0.75-0.75-0.75v0zM24 15.25h-16c-0.414 0-0.75 0.336-0.75 0.75s0.336 0.75 0.75 0.75v0h16c0.414 0 0.75-0.336 0.75-0.75s-0.336-0.75-0.75-0.75v0zM19 23.25h-6.053c-0.414 0-0.75 0.336-0.75 0.75s0.336 0.75 0.75 0.75v0h6.053c0.414 0 0.75-0.336 0.75-0.75s-0.336-0.75-0.75-0.75v0z"></path>
    </symbol>
    <!-- newChat/group -->
    <symbol id="newChat" viewBox="0 0 16 16" xmlns="http://www.w3.org/2000/svg" fill="currentColor" class="bi bi-pencil-square">
        <path d="M15.502 1.94a.5.5 0 0 1 0 .706L14.459 3.69l-2-2L13.502.646a.5.5 0 0 1 .707 0l1.293 1.293zm-1.75 2.456-2-2L4.939 9.21a.5.5 0 0 0-.121.196l-.805 2.414a.25.25 0 0 0 .316.316l2.414-.805a.5.5 0 0 0 .196-.12l6.813-6.814z"/>
        <path fill-rule="evenodd" d="M1 13.5A1.5 1.5 0 0 0 2.5 15h11a1.5 1.5 0 0 0 1.5-1.5v-6a.5.5 0 0 0-1 0v6a.5.5 0 0 1-.5.5h-11a.5.5 0 0 1-.5-.5v-11a.5.5 0 0 1 .5-.5H9a.5.5 0 0 0 0-1H2.5A1.5 1.5 0 0 0 1 2.5v11z"/>
    </symbol>
    <!-- buscar -->
    <symbol id="search" width="800px" height="800px" viewBox="0 0 24 24" fill="none" xmlns="http://www.w3.org/2000/svg" transform="matrix(-1, 0, 0, 1, 0, 0)">
        <g id="search" stroke-width="0"/>
        <g id="search" stroke-linecap="round" stroke-linejoin="round"/>
        <g id="search">
            <path d="M14.9536 14.9458L21 21M17 10C17 13.866 13.866 17 10 17C6.13401 17 3 13.866 3 10C3 6.13401 6.13401 3 10 3C13.866 3 17 6.13401 17 10Z" stroke="#000000" stroke-width="2" stroke-linecap="round" stroke-linejoin="round"/>
        </g>
    </symbol>
</svg>